<svg id="svg" xmlns="http://www.w3.org/2000/svg" xmlns:xlink="http://www.w3.org/1999/xlink" width="400" height="400" viewBox="0, 0, 400,400"><g id="svgg"><path id="path0" d="M189.800 80.442 C 109.734 85.460,53.581 146.529,70.031 210.696 C 80.745 252.487,121.511 285.097,173.885 293.773 C 191.044 296.616,192.695 299.353,189.406 319.513 C 187.420 331.686,187.888 333.475,193.031 333.350 C 203.554 333.094,256.012 298.981,284.800 273.673 C 318.851 243.739,332.564 219.148,332.577 188.000 C 332.603 124.941,267.103 75.597,189.800 80.442 M124.400 160.000 C 125.182 160.782,125.200 161.333,125.200 184.200 L 125.200 207.600 138.218 207.600 L 151.236 207.600 152.218 208.582 C 153.167 209.531,153.200 209.750,153.200 215.182 C 153.200 223.254,155.730 222.400,131.829 222.400 L 112.058 222.400 111.229 221.346 C 109.924 219.687,109.924 161.913,111.229 160.254 C 112.374 158.798,122.994 158.594,124.400 160.000 M174.800 160.000 C 175.586 160.786,175.600 161.333,175.600 190.800 C 175.600 226.601,176.580 222.400,168.229 222.400 C 159.854 222.400,160.800 226.422,160.800 190.800 C 160.800 155.178,159.854 159.200,168.229 159.200 C 173.467 159.200,174.074 159.274,174.800 160.000 M198.302 159.900 C 198.737 160.285,204.922 168.502,212.047 178.159 L 225.000 195.719 225.200 178.027 C 225.439 156.923,224.538 159.200,232.647 159.200 C 240.932 159.200,240.000 155.194,240.000 190.800 C 240.000 226.422,240.946 222.400,232.571 222.400 C 227.594 222.400,226.704 222.303,226.100 221.696 C 225.715 221.309,219.550 213.086,212.400 203.424 L 199.400 185.856 199.200 203.560 C 198.961 224.679,199.862 222.400,191.753 222.400 C 183.468 222.400,184.400 226.406,184.400 190.800 C 184.400 155.187,183.462 159.200,191.785 159.200 C 196.671 159.200,197.628 159.303,198.302 159.900 M290.638 160.041 C 291.572 161.071,292.000 170.068,291.206 171.985 C 290.411 173.904,289.697 174.000,276.181 174.000 L 263.600 174.000 263.600 178.800 L 263.600 183.600 276.738 183.600 C 292.862 183.600,291.400 182.882,291.400 190.800 C 291.400 198.718,292.862 198.000,276.738 198.000 L 263.600 198.000 263.600 202.800 L 263.600 207.600 276.174 207.600 C 289.653 207.600,290.412 207.698,291.171 209.530 C 291.999 211.529,291.602 220.496,290.638 221.559 C 289.470 222.848,250.886 222.886,249.600 221.600 C 248.814 220.814,248.800 220.267,248.800 190.800 C 248.800 161.333,248.814 160.786,249.600 160.000 C 250.886 158.714,289.470 158.752,290.638 160.041 " stroke="none" fill="#fbfbfb" fill-rule="evenodd"></path><path id="path1" d="M183.600 0.438 C 69.377 10.303,-12.701 111.652,1.414 225.400 C 12.583 315.413,84.587 387.417,174.600 398.586 C 304.979 414.765,414.765 304.979,398.586 174.600 C 385.482 68.997,289.557 -8.712,183.600 0.438 M220.207 81.156 C 314.228 93.932,362.702 177.460,314.091 242.930 C 295.732 267.656,255.890 299.982,213.202 324.787 C 190.204 338.151,186.122 337.175,189.257 319.061 C 191.570 305.696,191.008 300.583,186.945 298.006 C 183.494 295.818,181.661 295.293,170.800 293.389 C 97.485 280.537,51.689 219.192,71.371 160.200 C 86.108 116.028,130.989 85.367,188.400 80.249 C 193.676 79.779,214.428 80.370,220.207 81.156 M112.400 159.478 C 110.788 160.054,110.800 159.821,110.800 190.800 C 110.800 215.941,110.889 220.770,111.368 221.424 C 112.092 222.414,149.722 222.849,151.600 221.889 C 152.591 221.382,152.601 221.322,152.711 215.432 C 152.865 207.199,154.413 208.000,138.347 208.000 L 125.219 208.000 125.109 184.364 L 125.000 160.729 124.056 159.964 C 123.125 159.211,114.191 158.837,112.400 159.478 M162.800 159.478 C 161.188 160.054,161.200 159.821,161.200 190.800 C 161.200 215.924,161.290 220.770,161.767 221.424 C 162.776 222.805,173.211 222.825,174.588 221.448 L 175.600 220.436 175.600 190.800 L 175.600 161.164 174.618 160.182 C 173.656 159.220,164.970 158.702,162.800 159.478 M186.400 159.478 C 184.788 160.054,184.800 159.821,184.800 190.800 C 184.800 215.924,184.890 220.770,185.367 221.424 C 186.252 222.636,196.576 222.833,198.020 221.665 L 199.000 220.871 199.200 203.206 L 199.400 185.541 212.761 203.589 C 220.110 213.516,226.469 221.823,226.892 222.049 C 228.373 222.842,238.374 222.326,239.033 221.424 C 239.881 220.263,239.881 161.337,239.033 160.176 C 238.148 158.964,227.824 158.767,226.380 159.935 L 225.400 160.729 225.200 178.389 L 225.000 196.050 211.662 178.019 C 204.327 168.102,197.993 159.811,197.589 159.594 C 196.833 159.190,187.478 159.092,186.400 159.478 M249.944 159.965 L 249.000 160.729 249.000 190.800 L 249.000 220.871 249.944 221.635 C 251.091 222.564,288.003 222.847,289.726 221.940 C 291.118 221.207,291.187 220.889,291.194 215.189 C 291.203 207.244,292.741 208.000,276.577 208.000 L 263.200 208.000 263.200 203.000 L 263.200 198.000 276.400 198.000 C 292.677 198.000,291.200 198.719,291.200 190.800 C 291.200 182.881,292.677 183.600,276.400 183.600 L 263.200 183.600 263.200 178.600 L 263.200 173.600 276.400 173.600 C 292.664 173.600,291.203 174.302,291.194 166.500 C 291.187 160.709,291.120 160.393,289.726 159.660 C 288.003 158.753,251.091 159.036,249.944 159.965 " stroke="none" fill="#04bc04" fill-rule="evenodd"></path><path id="path2" d="M152.957 215.200 C 152.957 218.170,153.020 219.385,153.097 217.900 C 153.174 216.415,153.174 213.985,153.097 212.500 C 153.020 211.015,152.957 212.230,152.957 215.200 M96.400 256.200 C 97.817 257.630,99.067 258.800,99.177 258.800 C 99.287 258.800,98.217 257.630,96.800 256.200 C 95.383 254.770,94.133 253.600,94.023 253.600 C 93.913 253.600,94.983 254.770,96.400 256.200 " stroke="none" fill="#5dd25d" fill-rule="evenodd"></path><path id="path3" d="M110.590 190.800 C 110.590 206.750,110.639 213.275,110.700 205.300 C 110.760 197.325,110.760 184.275,110.700 176.300 C 110.639 168.325,110.590 174.850,110.590 190.800 M239.790 190.800 C 239.790 206.750,239.839 213.275,239.900 205.300 C 239.960 197.325,239.960 184.275,239.900 176.300 C 239.839 168.325,239.790 174.850,239.790 190.800 M263.353 178.600 C 263.353 181.240,263.418 182.268,263.497 180.884 C 263.575 179.501,263.574 177.341,263.495 176.084 C 263.416 174.828,263.352 175.960,263.353 178.600 M263.353 203.000 C 263.353 205.640,263.418 206.668,263.497 205.284 C 263.575 203.901,263.574 201.741,263.495 200.484 C 263.416 199.228,263.352 200.360,263.353 203.000 " stroke="none" fill="#7cdc7c" fill-rule="evenodd"></path><path id="path4" d="M192.900 80.276 C 193.285 80.376,193.915 80.376,194.300 80.276 C 194.685 80.175,194.370 80.093,193.600 80.093 C 192.830 80.093,192.515 80.175,192.900 80.276 M205.700 80.276 C 206.085 80.376,206.715 80.376,207.100 80.276 C 207.485 80.175,207.170 80.093,206.400 80.093 C 205.630 80.093,205.315 80.175,205.700 80.276 M96.587 120.100 L 94.200 122.600 96.700 120.213 C 99.022 117.995,99.383 117.600,99.087 117.600 C 99.026 117.600,97.901 118.725,96.587 120.100 M303.000 120.000 C 304.306 121.320,305.465 122.400,305.575 122.400 C 305.685 122.400,304.706 121.320,303.400 120.000 C 302.094 118.680,300.935 117.600,300.825 117.600 C 300.715 117.600,301.694 118.680,303.000 120.000 M160.990 190.800 C 160.990 207.190,161.039 213.895,161.100 205.700 C 161.160 197.505,161.160 184.095,161.100 175.900 C 161.039 167.705,160.990 174.410,160.990 190.800 M184.590 190.800 C 184.590 207.190,184.639 213.895,184.700 205.700 C 184.760 197.505,184.760 184.095,184.700 175.900 C 184.639 167.705,184.590 174.410,184.590 190.800 M291.355 166.600 C 291.356 169.460,291.420 170.578,291.497 169.083 C 291.574 167.589,291.574 165.249,291.496 163.883 C 291.418 162.518,291.355 163.740,291.355 166.600 M269.900 173.899 C 273.475 173.966,279.325 173.966,282.900 173.899 C 286.475 173.833,283.550 173.779,276.400 173.779 C 269.250 173.779,266.325 173.833,269.900 173.899 M66.928 188.000 C 66.928 189.430,67.001 190.015,67.089 189.300 C 67.178 188.585,67.178 187.415,67.089 186.700 C 67.001 185.985,66.928 186.570,66.928 188.000 M332.928 188.000 C 332.928 189.430,333.001 190.015,333.089 189.300 C 333.178 188.585,333.178 187.415,333.089 186.700 C 333.001 185.985,332.928 186.570,332.928 188.000 M291.354 190.800 C 291.354 193.550,291.418 194.675,291.496 193.300 C 291.574 191.925,291.574 189.675,291.496 188.300 C 291.418 186.925,291.354 188.050,291.354 190.800 M131.725 207.899 C 135.424 207.966,141.364 207.965,144.925 207.899 C 148.486 207.833,145.460 207.779,138.200 207.779 C 130.940 207.779,128.026 207.833,131.725 207.899 M269.900 207.899 C 273.475 207.966,279.325 207.966,282.900 207.899 C 286.475 207.833,283.550 207.779,276.400 207.779 C 269.250 207.779,266.325 207.833,269.900 207.899 M291.355 215.000 C 291.356 217.860,291.420 218.978,291.497 217.483 C 291.574 215.989,291.574 213.649,291.496 212.283 C 291.418 210.918,291.355 212.140,291.355 215.000 " stroke="none" fill="#84dc84" fill-rule="evenodd"></path></g></svg>